<svg xmlns="http://www.w3.org/2000/svg" version="1.1" xmlns:xlink="http://www.w3.org/1999/xlink" width="256" height="256"><svg xmlns="http://www.w3.org/2000/svg" version="1.1" xmlns:xlink="http://www.w3.org/1999/xlink" width="256" height="256"><svg width="256" height="256" viewBox="0 0 256 256" fill="none" xmlns="http://www.w3.org/2000/svg">
<mask id="path-2-outside-1_628_245" maskUnits="userSpaceOnUse" x="24" y="31" width="213" height="194" fill="black">
<rect fill="white" x="24" y="31" width="213" height="194"></rect>
<path d="M67.48 188L84.12 68.8H108.92L95.32 166.4H145.72L142.68 188H67.48ZM153.22 188L165.38 100.64H189.54L177.38 188H153.22ZM166.5 92.8L169.86 68.8H194.02L190.66 92.8H166.5Z"></path>
</mask>
<path d="M67.48 188L84.12 68.8H108.92L95.32 166.4H145.72L142.68 188H67.48ZM153.22 188L165.38 100.64H189.54L177.38 188H153.22ZM166.5 92.8L169.86 68.8H194.02L190.66 92.8H166.5Z" fill="white"></path>
<path d="M67.48 188L30.8353 182.885L24.9561 225H67.48V188ZM84.12 68.8V31.8H51.9263L47.4753 63.6845L84.12 68.8ZM108.92 68.8L145.566 73.9064L151.433 31.8H108.92V68.8ZM95.32 166.4L58.6741 161.294L52.8068 203.4H95.32V166.4ZM145.72 166.4L182.359 171.557L188.292 129.4H145.72V166.4ZM142.68 188V225H174.837L179.319 193.157L142.68 188ZM67.48 188L104.125 193.115L120.765 73.9155L84.12 68.8L47.4753 63.6845L30.8353 182.885L67.48 188ZM84.12 68.8V105.8H108.92V68.8V31.8H84.12V68.8ZM108.92 68.8L72.2741 63.6936L58.6741 161.294L95.32 166.4L131.966 171.506L145.566 73.9064L108.92 68.8ZM95.32 166.4V203.4H145.72V166.4V129.4H95.32V166.4ZM145.72 166.4L109.081 161.243L106.041 182.843L142.68 188L179.319 193.157L182.359 171.557L145.72 166.4ZM142.68 188V151H67.48V188V225H142.68V188ZM153.22 188L116.573 182.899L110.713 225H153.22V188ZM165.38 100.64V63.64H133.173L128.733 95.539L165.38 100.64ZM189.54 100.64L226.187 105.741L232.047 63.64H189.54V100.64ZM177.38 188V225H209.587L214.027 193.101L177.38 188ZM166.5 92.8L129.857 87.67L123.959 129.8H166.5V92.8ZM169.86 68.8V31.8H137.679L133.217 63.67L169.86 68.8ZM194.02 68.8L230.663 73.93L236.561 31.8H194.02V68.8ZM190.66 92.8V129.8H222.841L227.303 97.93L190.66 92.8ZM153.22 188L189.867 193.101L202.027 105.741L165.38 100.64L128.733 95.539L116.573 182.899L153.22 188ZM165.38 100.64V137.64H189.54V100.64V63.64H165.38V100.64ZM189.54 100.64L152.893 95.539L140.733 182.899L177.38 188L214.027 193.101L226.187 105.741L189.54 100.64ZM177.38 188V151H153.22V188V225H177.38V188ZM166.5 92.8L203.143 97.93L206.503 73.93L169.86 68.8L133.217 63.67L129.857 87.67L166.5 92.8ZM169.86 68.8V105.8H194.02V68.8V31.8H169.86V68.8ZM194.02 68.8L157.377 63.67L154.017 87.67L190.66 92.8L227.303 97.93L230.663 73.93L194.02 68.8ZM190.66 92.8V55.8H166.5V92.8V129.8H190.66V92.8Z" fill="#0059DE" mask="url(#path-2-outside-1_628_245)"></path>
</svg></svg><style>@media (prefers-color-scheme: light) { :root { filter: none; } }
@media (prefers-color-scheme: dark) { :root { filter: none; } }
</style></svg>